<svg xmlns="http://www.w3.org/2000/svg" width="24" height="24" viewBox="0 0 24 24"><g fill="none"><path fill="#bbd8ff" d="m5.7 18.2l1.4 4.3l2.2-2.1l-.4-2.5l6.3-5.6l3.2 9.7l1.1-1.7V7.5l3-3.1V1.5h-3l-3 3H3.9L2.2 5.6l9.5 3.2l-5.6 6.3l-2.5-.4l-2.1 2.1z"/><path fill="#5b7fa6" d="m5.7 18.2l1.4 4.3l2.2-2.1l-.4-2.5l6.3-5.6l3.2 9.7l1.1-1.7V7.5l3-3.1V1.5z"/><path stroke="#c0392b" stroke-linecap="round" stroke-linejoin="round" stroke-miterlimit="10" d="m5.7 18.2l1.4 4.3l2.2-2.1l-.4-2.5l6.3-5.6l3.2 9.7l1.1-1.7V7.5l3-3.1V1.5h-3l-3 3H3.9L2.2 5.6l9.5 3.2l-5.6 6.3l-2.5-.4l-2.1 2.1z" stroke-width="1"/></g></svg>